<svg xmlns="http://www.w3.org/2000/svg" width="1200" height="500" viewBox="0 0 1200 500" fill="none">
  <rect width="1200" height="500" fill="#0F172A"/>
  <text x="70" y="70" fill="#F8FAFC" font-size="34" font-family="Arial, sans-serif" font-weight="700">Two Pointers (Palindrome Check)</text>

  <rect x="130" y="180" width="120" height="120" rx="10" fill="#1E293B" stroke="#475569"/>
  <rect x="260" y="180" width="120" height="120" rx="10" fill="#1E293B" stroke="#475569"/>
  <rect x="390" y="180" width="120" height="120" rx="10" fill="#1E293B" stroke="#475569"/>
  <rect x="520" y="180" width="120" height="120" rx="10" fill="#1E293B" stroke="#475569"/>
  <rect x="650" y="180" width="120" height="120" rx="10" fill="#1E293B" stroke="#475569"/>

  <text x="177" y="255" fill="#E2E8F0" font-size="48" font-family="Arial, sans-serif">l</text>
  <text x="307" y="255" fill="#E2E8F0" font-size="48" font-family="Arial, sans-serif">e</text>
  <text x="437" y="255" fill="#E2E8F0" font-size="48" font-family="Arial, sans-serif">v</text>
  <text x="567" y="255" fill="#E2E8F0" font-size="48" font-family="Arial, sans-serif">e</text>
  <text x="697" y="255" fill="#E2E8F0" font-size="48" font-family="Arial, sans-serif">l</text>

  <line x1="120" y1="140" x2="190" y2="180" stroke="#22D3EE" stroke-width="5"/>
  <polygon points="190,180 170,176 178,160" fill="#22D3EE"/>
  <text x="70" y="135" fill="#22D3EE" font-size="22" font-family="Arial, sans-serif">left</text>

  <line x1="840" y1="140" x2="760" y2="180" stroke="#F472B6" stroke-width="5"/>
  <polygon points="760,180 772,162 780,178" fill="#F472B6"/>
  <text x="845" y="135" fill="#F472B6" font-size="22" font-family="Arial, sans-serif">right</text>

  <text x="130" y="380" fill="#94A3B8" font-size="24" font-family="Arial, sans-serif">Step: compare both ends -> move inward</text>
</svg>
