<svg xmlns="http://www.w3.org/2000/svg" width="200" height="200" viewBox="0 0 200 200">
  <rect width="200" height="200" fill="#f9fafb" rx="12"/>
  <!-- QR finder patterns (top-left) -->
  <rect x="16" y="16" width="56" height="56" rx="4" fill="none" stroke="#1f2937" stroke-width="6"/>
  <rect x="28" y="28" width="32" height="32" rx="2" fill="#1f2937"/>
  <!-- QR finder patterns (top-right) -->
  <rect x="128" y="16" width="56" height="56" rx="4" fill="none" stroke="#1f2937" stroke-width="6"/>
  <rect x="140" y="28" width="32" height="32" rx="2" fill="#1f2937"/>
  <!-- QR finder patterns (bottom-left) -->
  <rect x="16" y="128" width="56" height="56" rx="4" fill="none" stroke="#1f2937" stroke-width="6"/>
  <rect x="28" y="140" width="32" height="32" rx="2" fill="#1f2937"/>
  <!-- Data dots pattern -->
  <rect x="88" y="16" width="8" height="8" fill="#1f2937"/>
  <rect x="100" y="16" width="8" height="8" fill="#1f2937"/>
  <rect x="88" y="28" width="8" height="8" fill="#1f2937"/>
  <rect x="112" y="28" width="8" height="8" fill="#1f2937"/>
  <rect x="100" y="40" width="8" height="8" fill="#1f2937"/>
  <rect x="88" y="52" width="8" height="8" fill="#1f2937"/>
  <rect x="112" y="52" width="8" height="8" fill="#1f2937"/>
  <rect x="100" y="64" width="8" height="8" fill="#1f2937"/>
  <rect x="88" y="76" width="8" height="8" fill="#1f2937"/>
  <rect x="16" y="88" width="8" height="8" fill="#1f2937"/>
  <rect x="28" y="88" width="8" height="8" fill="#1f2937"/>
  <rect x="52" y="88" width="8" height="8" fill="#1f2937"/>
  <rect x="64" y="88" width="8" height="8" fill="#1f2937"/>
  <rect x="88" y="88" width="8" height="8" fill="#1f2937"/>
  <rect x="100" y="88" width="8" height="8" fill="#1f2937"/>
  <rect x="112" y="88" width="8" height="8" fill="#1f2937"/>
  <rect x="124" y="88" width="8" height="8" fill="#1f2937"/>
  <rect x="148" y="88" width="8" height="8" fill="#1f2937"/>
  <rect x="172" y="88" width="8" height="8" fill="#1f2937"/>
  <rect x="88" y="100" width="8" height="8" fill="#1f2937"/>
  <rect x="112" y="100" width="8" height="8" fill="#1f2937"/>
  <rect x="136" y="100" width="8" height="8" fill="#1f2937"/>
  <rect x="160" y="100" width="8" height="8" fill="#1f2937"/>
  <rect x="88" y="112" width="8" height="8" fill="#1f2937"/>
  <rect x="100" y="112" width="8" height="8" fill="#1f2937"/>
  <rect x="124" y="112" width="8" height="8" fill="#1f2937"/>
  <rect x="148" y="112" width="8" height="8" fill="#1f2937"/>
  <rect x="172" y="112" width="8" height="8" fill="#1f2937"/>
  <rect x="88" y="124" width="8" height="8" fill="#1f2937"/>
  <rect x="112" y="124" width="8" height="8" fill="#1f2937"/>
  <rect x="136" y="124" width="8" height="8" fill="#1f2937"/>
  <rect x="88" y="136" width="8" height="8" fill="#1f2937"/>
  <rect x="100" y="136" width="8" height="8" fill="#1f2937"/>
  <rect x="124" y="136" width="8" height="8" fill="#1f2937"/>
  <rect x="148" y="136" width="8" height="8" fill="#1f2937"/>
  <rect x="160" y="136" width="8" height="8" fill="#1f2937"/>
  <rect x="88" y="148" width="8" height="8" fill="#1f2937"/>
  <rect x="112" y="148" width="8" height="8" fill="#1f2937"/>
  <rect x="136" y="148" width="8" height="8" fill="#1f2937"/>
  <rect x="172" y="148" width="8" height="8" fill="#1f2937"/>
  <rect x="88" y="160" width="8" height="8" fill="#1f2937"/>
  <rect x="100" y="160" width="8" height="8" fill="#1f2937"/>
  <rect x="124" y="160" width="8" height="8" fill="#1f2937"/>
  <rect x="148" y="160" width="8" height="8" fill="#1f2937"/>
  <rect x="88" y="172" width="8" height="8" fill="#1f2937"/>
  <rect x="112" y="172" width="8" height="8" fill="#1f2937"/>
  <rect x="136" y="172" width="8" height="8" fill="#1f2937"/>
  <rect x="160" y="172" width="8" height="8" fill="#1f2937"/>
  <rect x="172" y="172" width="8" height="8" fill="#1f2937"/>
  <!-- Placeholder text -->
  <text x="100" y="108" text-anchor="middle" font-family="sans-serif" font-size="9" fill="#6b7280">REPLACE WITH</text>
  <text x="100" y="120" text-anchor="middle" font-family="sans-serif" font-size="9" fill="#6b7280">YOUR QR CODE</text>
</svg>
