<svg xmlns="http://www.w3.org/2000/svg" viewBox="0 0 500 500" width="500" height="500">
  <defs>
    <filter id="softGlow" x="-30%" y="-30%" width="160%" height="160%">
      <feGaussianBlur stdDeviation="2.2" result="b"/>
      <feComposite in="SourceGraphic" in2="b" operator="over"/>
    </filter>
    <filter id="flameGlow" x="-60%" y="-60%" width="220%" height="220%">
      <feGaussianBlur stdDeviation="10" result="b"/>
      <feComponentTransfer in="b" result="g"><feFuncA type="linear" slope="1.6"/></feComponentTransfer>
      <feMerge><feMergeNode in="g"/><feMergeNode in="SourceGraphic"/></feMerge>
    </filter>

    <linearGradient id="bookCoverGrad" x1="0%" y1="0%" x2="100%" y2="0%">
      <stop offset="0%" stop-color="#130500"/>
      <stop offset="50%" stop-color="#2B0E01"/>
      <stop offset="100%" stop-color="#130500"/>
    </linearGradient>

    <linearGradient id="pageEdgeGrad" x1="0%" y1="0%" x2="0%" y2="100%">
      <stop offset="0%" stop-color="#7A2F0E"/>
      <stop offset="100%" stop-color="#2C0F03"/>
    </linearGradient>

    <radialGradient id="pageLightLeft" cx="95%" cy="95%" r="130%">
      <stop offset="0%" stop-color="#FFBC5A"/>
      <stop offset="35%" stop-color="#D44C0B"/>
      <stop offset="80%" stop-color="#2A0D02"/>
      <stop offset="100%" stop-color="#130500"/>
    </radialGradient>

    <radialGradient id="pageLightRight" cx="5%" cy="95%" r="130%">
      <stop offset="0%" stop-color="#FFBC5A"/>
      <stop offset="35%" stop-color="#D44C0B"/>
      <stop offset="80%" stop-color="#2A0D02"/>
      <stop offset="100%" stop-color="#130500"/>
    </radialGradient>

    <linearGradient id="candleBodyGrad" x1="0%" y1="0%" x2="100%" y2="0%">
      <stop offset="0%" stop-color="#3A1202"/>
      <stop offset="20%" stop-color="#8C2C08"/>
      <stop offset="50%" stop-color="#E35A14"/>
      <stop offset="80%" stop-color="#8C2C08"/>
      <stop offset="100%" stop-color="#3A1202"/>
    </linearGradient>

    <radialGradient id="meltPoolGrad" cx="50%" cy="50%" r="55%">
      <stop offset="0%" stop-color="#FFF2B5"/>
      <stop offset="45%" stop-color="#FFB341"/>
      <stop offset="100%" stop-color="#7A2D08"/>
    </radialGradient>

    <radialGradient id="halo" cx="50%" cy="45%" r="45%">
      <stop offset="0%" stop-color="#FF6A00" stop-opacity="0.28"/>
      <stop offset="45%" stop-color="#A32000" stop-opacity="0.10"/>
      <stop offset="100%" stop-color="#000000" stop-opacity="0"/>
    </radialGradient>
  </defs>

  <rect width="500" height="500" fill="#000000"/>

  <!-- subtle matrix rain in background only -->
  <g font-family="monospace" font-size="10" font-weight="bold" opacity="0.35" filter="url(#softGlow)">
    <text x="20" y="-10" writing-mode="vertical-rl" fill="#8B2200">1 0 1 1 0 0 1 0 1 0 1 1 0 0</text>
    <text x="55" y="30" writing-mode="vertical-rl" fill="#B33600">0 1 0 0 1 1 0 1 0 0 1 1</text>
    <text x="90" y="-20" writing-mode="vertical-rl" fill="#FF5A00">1 1 0 1 0 0 1 0 1 1 0</text>
    <text x="140" y="40" writing-mode="vertical-rl" fill="#C84500">0 0 1 0 1 1 0 1 0 0</text>

    <text x="330" y="20" writing-mode="vertical-rl" fill="#C84500">1 0 1 0 0 1 1 0 1 0 1</text>
    <text x="370" y="-15" writing-mode="vertical-rl" fill="#FF5A00">0 1 1 0 1 0 0 1 0 1 1</text>
    <text x="415" y="35" writing-mode="vertical-rl" fill="#B33600">1 0 0 1 1 0 1 0 0 1</text>
    <text x="455" y="-5" writing-mode="vertical-rl" fill="#8B2200">0 1 0 1 0 0 1 1 0 1 0</text>
  </g>

  <circle cx="250" cy="230" r="220" fill="url(#halo)"/>

  <!-- BOOK: realistic open-book construction -->
  <g id="book">
    <!-- lower covers -->
    <path d="M 35 330 C 140 316 210 328 244 346 L 244 375 C 205 356 135 344 30 358 Z" fill="url(#bookCoverGrad)"/>
    <path d="M 465 330 C 360 316 290 328 256 346 L 256 375 C 295 356 365 344 470 358 Z" fill="url(#bookCoverGrad)"/>

    <!-- page blocks thickness -->
    <path d="M 45 318 C 145 306 214 320 244 338 L 244 356 C 214 339 145 325 45 338 Z" fill="url(#pageEdgeGrad)"/>
    <path d="M 455 318 C 355 306 286 320 256 338 L 256 356 C 286 339 355 325 455 338 Z" fill="url(#pageEdgeGrad)"/>

    <!-- page edge lines -->
    <path d="M 47 323 C 145 311 213 325 244 343" fill="none" stroke="#A4471C" stroke-width="1"/>
    <path d="M 47 329 C 145 317 213 331 244 349" fill="none" stroke="#5E250E" stroke-width="1"/>
    <path d="M 453 323 C 355 311 287 325 256 343" fill="none" stroke="#A4471C" stroke-width="1"/>
    <path d="M 453 329 C 355 317 287 331 256 349" fill="none" stroke="#5E250E" stroke-width="1"/>

    <!-- top pages -->
    <path d="M 244 345 C 215 326 145 306 52 318 C 66 258 140 238 247 252 C 248 282 247 317 244 345 Z" fill="url(#pageLightLeft)"/>
    <path d="M 256 345 C 285 326 355 306 448 318 C 434 258 360 238 253 252 C 252 282 253 317 256 345 Z" fill="url(#pageLightRight)"/>

    <!-- page highlights -->
    <path d="M 247 252 C 170 241 107 254 60 304" fill="none" stroke="#FF9D4A" stroke-width="1" opacity="0.4"/>
    <path d="M 253 252 C 330 241 393 254 440 304" fill="none" stroke="#FF9D4A" stroke-width="1" opacity="0.4"/>

    <!-- center gutter / spine -->
    <path d="M 250 251 C 244 278 244 315 250 346" fill="none" stroke="#060200" stroke-width="7"/>
    <path d="M 250 251 C 247 278 247 315 250 346" fill="none" stroke="#FF611B" stroke-width="1.2" opacity="0.55" filter="url(#softGlow)"/>

    <!-- subtle matrix text etched into pages (realistic density) -->
    <g font-family="monospace" font-size="7" fill="#FF9E45" opacity="0.45" filter="url(#softGlow)">
      <g transform="matrix(0.94,0.20,0,1,95,285)">
        <text y="0">10100110 01010101 11001010</text>
        <text y="12">CORE.init(); await kernel();</text>
        <text y="24">01011010 10110100 01001011</text>
      </g>
      <g transform="matrix(0.94,-0.20,0,1,290,298)">
        <text y="0">01100110 10101010 00101101</text>
        <text y="12">if (temp &gt; limit) ignite();</text>
        <text y="24">11001100 01001001 01101110</text>
      </g>
    </g>
  </g>

  <!-- CANDLE: short, realistic pillar on book center -->
  <g id="candle">
    <path d="M 228 222 Q 228 213 250 210 Q 272 213 272 222 L 269 312 C 255 321 245 321 231 312 Z" fill="url(#candleBodyGrad)"/>
    <path d="M 228 222 Q 228 213 250 210 Q 272 213 272 222 L 269 312 C 255 321 245 321 231 312 Z" fill="none" stroke="#FF7A2B" stroke-width="1" opacity="0.35"/>

    <!-- melted rim and pool -->
    <ellipse cx="250" cy="220" rx="22" ry="7" fill="#381204"/>
    <ellipse cx="250" cy="220" rx="22" ry="7" fill="none" stroke="#FF8A30" stroke-width="1" opacity="0.55"/>
    <ellipse cx="250" cy="221" rx="14" ry="4.5" fill="url(#meltPoolGrad)" filter="url(#softGlow)"/>
    <ellipse cx="250" cy="221" rx="6" ry="2" fill="#FFF8D8" opacity="0.75"/>

    <!-- wax drips -->
    <path d="M 233 224 Q 237 255 234 287 Q 238 293 241 287 Q 239 255 241 226 Z" fill="#B74414" opacity="0.9"/>
    <path d="M 235 229 Q 238 256 236 283 Q 238 285 239 281 Q 238 257 239 230 Z" fill="#FFB14A" opacity="0.55"/>

    <path d="M 262 224 Q 260 242 263 270 Q 266 276 268 271 Q 265 244 267 225 Z" fill="#9D350E" opacity="0.95"/>
    <path d="M 262 228 Q 261 244 263 266 Q 264 267 265 265 Q 263 245 264 229 Z" fill="#FF9F38" opacity="0.6"/>

    <!-- tiny holder lip to anchor candle on the book -->
    <ellipse cx="250" cy="314" rx="27" ry="7" fill="#1A0701"/>
    <ellipse cx="250" cy="314" rx="27" ry="7" fill="none" stroke="#D85A1E" stroke-width="0.9" opacity="0.7"/>
  </g>

  <!-- wick + flame -->
  <path d="M 250 221 C 248 206 254 194 252 181" fill="none" stroke="#120500" stroke-width="2.2" stroke-linecap="round"/>
  <path d="M 250 221 C 248 206 253 194 252 185" fill="none" stroke="#FF4C13" stroke-width="0.9" stroke-linecap="round"/>
  <circle cx="252" cy="178" r="2.2" fill="#FFE16B" filter="url(#softGlow)"/>

  <g filter="url(#flameGlow)">
    <path d="M 252 76 Q 322 142 252 196 Q 182 142 252 76 Z" fill="#FF0800" opacity="0.20"/>
    <path d="M 252 97 Q 301 149 252 192 Q 203 149 252 97 Z" fill="#FF4A00" opacity="0.50"/>
    <path d="M 252 115 Q 282 154 252 188 Q 222 154 252 115 Z" fill="#FFD21A" opacity="0.90"/>
    <path d="M 252 136 Q 267 161 252 185 Q 237 161 252 136 Z" fill="#FFFFFF"/>
    <path d="M 252 181 Q 260 190 252 196 Q 244 190 252 181 Z" fill="#4FD0FF" opacity="0.55"/>
  </g>

  <!-- matrix sparks -->
  <g font-family="monospace" font-weight="bold" filter="url(#softGlow)">
    <text x="249" y="101" font-size="16" fill="#FFF2C2" opacity="0.9">1</text>
    <text x="238" y="126" font-size="13" fill="#FFC45A" opacity="0.8">0</text>
    <text x="266" y="136" font-size="11" fill="#FF9C3A" opacity="0.75">1</text>
    <text x="214" y="92" font-size="10" fill="#FF6A22" opacity="0.6">0</text>
    <text x="286" y="114" font-size="10" fill="#FF6A22" opacity="0.6">1</text>

    <text x="220" y="72" writing-mode="vertical-rl" font-size="8" fill="#D84A15" opacity="0.55">1011</text>
    <text x="285" y="64" writing-mode="vertical-rl" font-size="8" fill="#D84A15" opacity="0.55">0101</text>
  </g>
</svg>