<svg xmlns="http://www.w3.org/2000/svg" width="1200" height="700" viewBox="0 0 1200 700" fill="none">
  <rect width="1200" height="700" fill="#020617"/>
  <text x="60" y="75" fill="#E2E8F0" font-size="34" font-family="Arial, sans-serif" font-weight="700">Stack vs Heap Memory</text>

  <rect x="70" y="130" width="450" height="500" rx="14" fill="#0F172A" stroke="#334155"/>
  <text x="250" y="175" fill="#A5B4FC" font-size="28" font-family="Arial, sans-serif" font-weight="700">STACK</text>

  <rect x="120" y="500" width="350" height="70" rx="8" fill="#1E293B" stroke="#475569"/>
  <text x="140" y="545" fill="#E2E8F0" font-size="24" font-family="Arial, sans-serif">a -> 0xA1F0</text>

  <rect x="120" y="410" width="350" height="70" rx="8" fill="#1E293B" stroke="#475569"/>
  <text x="140" y="455" fill="#E2E8F0" font-size="24" font-family="Arial, sans-serif">n = 42</text>

  <rect x="120" y="320" width="350" height="70" rx="8" fill="#1E293B" stroke="#475569"/>
  <text x="140" y="365" fill="#E2E8F0" font-size="24" font-family="Arial, sans-serif">func frame</text>

  <rect x="680" y="130" width="450" height="500" rx="14" fill="#0F172A" stroke="#334155"/>
  <text x="865" y="175" fill="#FCA5A5" font-size="28" font-family="Arial, sans-serif" font-weight="700">HEAP</text>

  <rect x="740" y="270" width="320" height="170" rx="10" fill="#1E293B" stroke="#475569"/>
  <text x="770" y="325" fill="#E2E8F0" font-size="24" font-family="Arial, sans-serif">[1, 2, 3]</text>
  <text x="770" y="365" fill="#94A3B8" font-size="20" font-family="Arial, sans-serif">address: 0xA1F0</text>

  <line x1="470" y1="535" x2="740" y2="355" stroke="#FBBF24" stroke-width="4"/>
  <polygon points="740,355 722,360 730,345" fill="#FBBF24"/>
  <text x="500" y="500" fill="#FBBF24" font-size="20" font-family="Arial, sans-serif">reference / pointer</text>
</svg>
